<svg xmlns="http://www.w3.org/2000/svg" width="250" height="300" viewBox="0 0 250 300">
  <rect width="250" height="300" fill="white" stroke="#ddd" stroke-width="2" rx="8"/>
  <rect x="25" y="20" width="200" height="200" fill="#f0f0f0" stroke="#ccc" rx="4"/>
  <rect x="45" y="40" width="30" height="30" fill="#333"/>
  <rect x="85" y="40" width="10" height="10" fill="#333"/>
  <rect x="105" y="40" width="10" height="10" fill="#333"/>
  <rect x="125" y="40" width="10" height="10" fill="#333"/>
  <rect x="175" y="40" width="30" height="30" fill="#333"/>
  <rect x="45" y="80" width="10" height="10" fill="#333"/>
  <rect x="65" y="80" width="10" height="10" fill="#333"/>
  <rect x="95" y="80" width="10" height="10" fill="#333"/>
  <rect x="115" y="80" width="10" height="10" fill="#333"/>
  <rect x="135" y="80" width="10" height="10" fill="#333"/>
  <rect x="175" y="80" width="10" height="10" fill="#333"/>
  <rect x="195" y="80" width="10" height="10" fill="#333"/>
  <rect x="45" y="100" width="10" height="10" fill="#333"/>
  <rect x="85" y="100" width="10" height="10" fill="#333"/>
  <rect x="115" y="100" width="10" height="10" fill="#333"/>
  <rect x="145" y="100" width="10" height="10" fill="#333"/>
  <rect x="175" y="100" width="10" height="10" fill="#333"/>
  <rect x="55" y="120" width="10" height="10" fill="#333"/>
  <rect x="75" y="120" width="10" height="10" fill="#333"/>
  <rect x="105" y="120" width="10" height="10" fill="#333"/>
  <rect x="135" y="120" width="10" height="10" fill="#333"/>
  <rect x="165" y="120" width="10" height="10" fill="#333"/>
  <rect x="185" y="120" width="10" height="10" fill="#333"/>
  <rect x="45" y="140" width="10" height="10" fill="#333"/>
  <rect x="65" y="140" width="10" height="10" fill="#333"/>
  <rect x="95" y="140" width="10" height="10" fill="#333"/>
  <rect x="125" y="140" width="10" height="10" fill="#333"/>
  <rect x="155" y="140" width="10" height="10" fill="#333"/>
  <rect x="195" y="140" width="10" height="10" fill="#333"/>
  <rect x="45" y="170" width="30" height="30" fill="#333"/>
  <rect x="95" y="170" width="10" height="10" fill="#333"/>
  <rect x="115" y="170" width="10" height="10" fill="#333"/>
  <rect x="145" y="170" width="10" height="10" fill="#333"/>
  <rect x="175" y="170" width="30" height="30" fill="#333"/>
  <text x="125" y="245" text-anchor="middle" font-family="Arial, sans-serif" font-size="15" font-weight="bold" fill="#333">Premium Plus</text>
  <text x="125" y="268" text-anchor="middle" font-family="Arial, sans-serif" font-size="20" font-weight="bold" fill="#0b3c91">₹3999</text>
  <text x="125" y="288" text-anchor="middle" font-family="Arial, sans-serif" font-size="10" fill="#666">Scan to Pay</text>
</svg>
